<svg width="40" height="40" viewBox="0 0 40 40" fill="none" xmlns="http://www.w3.org/2000/svg">
    <circle cx="20" cy="20" r="20" fill="url(#paint0_radial_7341_45850)" />
    <circle cx="20" cy="20" r="20" fill="url(#paint1_radial_7341_45850)" />
    <path
        d="M16.3338 19.9988C16.3339 19.2737 16.549 18.5648 16.9519 17.9619C17.3549 17.359 17.9276 16.8891 18.5976 16.6116C19.2676 16.3342 20.0049 16.2616 20.7162 16.4032C21.4274 16.5447 22.0807 16.894 22.5934 17.4068C23.1062 17.9197 23.4553 18.573 23.5967 19.2843C23.7381 19.9956 23.6654 20.7328 23.3878 21.4027C23.1101 22.0726 22.6401 22.6452 22.037 23.048C21.434 23.4508 20.7251 23.6657 19.9999 23.6656C19.0275 23.6655 18.0949 23.279 17.4074 22.5914C16.7199 21.9038 16.3337 20.9712 16.3338 19.9988ZM14.3514 19.9988C14.3514 21.1159 14.6827 22.208 15.3034 23.1368C15.924 24.0656 16.8062 24.7896 17.8383 25.2171C18.8704 25.6446 20.0061 25.7564 21.1018 25.5385C22.1975 25.3206 23.2039 24.7826 23.9939 23.9927C24.7838 23.2028 25.3218 22.1964 25.5397 21.1007C25.7577 20.0051 25.6458 18.8694 25.2183 17.8374C24.7908 16.8053 24.0668 15.9232 23.1379 15.3025C22.2091 14.6819 21.117 14.3506 19.9999 14.3506C19.2581 14.3506 18.5236 14.4967 17.8383 14.7805C17.1529 15.0644 16.5303 15.4804 16.0057 16.0049C15.4812 16.5294 15.0652 17.152 14.7813 17.8373C14.4975 18.5226 14.3514 19.2571 14.3514 19.9988ZM24.5519 14.1268C24.5517 14.3879 24.629 14.6431 24.774 14.8602C24.9189 15.0774 25.125 15.2466 25.3661 15.3466C25.6073 15.4466 25.8727 15.4729 26.1287 15.4221C26.3848 15.3713 26.62 15.2456 26.8047 15.0611C26.9894 14.8766 27.1152 14.6415 27.1662 14.3855C27.2173 14.1295 27.1913 13.8641 27.0915 13.6229C26.9917 13.3816 26.8226 13.1754 26.6056 13.0303C26.3886 12.8852 26.1334 12.8077 25.8724 12.8075C25.5224 12.8077 25.1869 12.9467 24.9394 13.1941C24.6919 13.4415 24.5527 13.7769 24.5524 14.1268H24.5519ZM15.5564 28.9524C14.8589 28.9447 14.1679 28.8171 13.5137 28.575C13.0392 28.3922 12.6083 28.112 12.2487 27.7525C11.8891 27.3931 11.6087 26.9623 11.4256 26.488C11.1835 25.8338 11.0558 25.1428 11.0483 24.4453C10.9949 23.2859 10.9844 22.9376 10.9844 20.0003C10.9844 17.063 10.996 16.7155 11.0483 15.555C11.0567 14.8576 11.1844 14.1667 11.4256 13.5123C11.6085 13.0378 11.8888 12.6068 12.2484 12.2471C12.6081 11.8875 13.0391 11.6072 13.5137 11.4244C14.1679 11.1822 14.8589 11.0546 15.5564 11.047C16.7158 10.9936 17.0642 10.9832 20.0004 10.9832C22.9367 10.9832 23.2853 10.9945 24.4459 11.0473C25.1433 11.0558 25.8342 11.1834 26.4886 11.4247C26.9632 11.6075 27.3942 11.8878 27.7539 12.2474C28.1135 12.6071 28.3938 13.0381 28.5767 13.5126C28.8188 14.1668 28.9465 14.8578 28.9541 15.5553C29.0075 16.7164 29.0179 17.063 29.0179 20.0006C29.0179 22.9382 29.0072 23.2853 28.9541 24.4459C28.9459 25.1433 28.8183 25.8342 28.5767 26.4885C28.3936 26.9629 28.1132 27.3937 27.7536 27.7531C27.394 28.1126 26.9631 28.3927 26.4886 28.5756C25.8345 28.8178 25.1434 28.9454 24.4459 28.953C23.2865 29.0064 22.9381 29.0168 20.0004 29.0168C17.0627 29.0168 16.7155 29.0061 15.5564 28.953V28.9524ZM15.4653 9.06647C14.5526 9.08442 13.6495 9.25716 12.7946 9.57735C12.0638 9.8599 11.4001 10.292 10.8461 10.846C10.2921 11.4001 9.85993 12.0637 9.57738 12.7945C9.25722 13.6493 9.08447 14.5524 9.06648 15.465C9.01219 16.6377 9 17.0128 9 20C9 22.9872 9.01248 23.362 9.06648 24.535C9.08446 25.4476 9.25721 26.3506 9.57738 27.2055C9.85995 27.9363 10.2921 28.5999 10.8461 29.1539C11.4002 29.7079 12.0638 30.1401 12.7946 30.4226C13.6496 30.7427 14.5526 30.9154 15.4653 30.9335C16.6386 30.9869 17.0131 31 20.0004 31C22.9878 31 23.3625 30.9875 24.5356 30.9335C25.4483 30.9155 26.3513 30.7428 27.2062 30.4226C27.937 30.1401 28.6007 29.7079 29.1547 29.1539C29.7088 28.5999 30.1409 27.9363 30.4235 27.2055C30.7441 26.3508 30.9168 25.4477 30.9344 24.535C30.9878 23.3614 31 22.9872 31 20C31 17.0128 30.9875 16.638 30.9344 15.465C30.9165 14.5523 30.7437 13.6493 30.4235 12.7945C30.1409 12.0639 29.7089 11.4003 29.155 10.8463C28.6012 10.2923 27.9377 9.8601 27.2071 9.57735C26.3523 9.25696 25.4492 9.08421 24.5365 9.06647C23.3634 9.01277 22.9887 9 20.0019 9C17.0151 9 16.6395 9.01248 15.4659 9.06647"
        fill="white" />
    <defs>
        <radialGradient id="paint0_radial_7341_45850" cx="0" cy="0" r="1" gradientUnits="userSpaceOnUse"
            gradientTransform="translate(11 34) scale(32)">
            <stop offset="0.078125" stop-color="#FA8F21" />
            <stop offset="0.932292" stop-color="#D82D7E" />
        </radialGradient>
        <radialGradient id="paint1_radial_7341_45850" cx="0" cy="0" r="1" gradientUnits="userSpaceOnUse"
            gradientTransform="translate(20 32) scale(38)">
            <stop offset="0.494792" stop-color="#8C3AAA" stop-opacity="0" />
            <stop offset="1" stop-color="#8C3AAA" />
        </radialGradient>
    </defs>
</svg>