<svg width="40" height="40" viewBox="0 0 40 40" fill="none" xmlns="http://www.w3.org/2000/svg">
    <g clip-path="url(#clip0_7341_45858)">
        <rect x="0.25" y="0.25" width="39.5" height="39.5" rx="19.75" fill="black" stroke="white" stroke-width="0.5" />
        <path fill-rule="evenodd" clip-rule="evenodd"
            d="M24.6097 9.01848C24.611 9.35406 24.709 14.2039 29.7986 14.5064C29.7986 15.9051 29.8003 16.9191 29.8003 18.2537C29.4149 18.2761 26.4496 18.0608 24.6041 16.4147L24.5985 23.7099C24.6686 28.7733 20.9423 31.8546 16.0719 30.7902C7.67321 28.2779 10.464 15.8213 18.897 17.1546C18.897 21.176 18.8992 17.1533 18.8992 21.176C15.4153 20.6634 14.25 23.5616 15.176 25.6366C16.0181 27.5259 19.487 27.9354 20.697 25.2701C20.8341 24.7484 20.9024 24.1537 20.9024 23.486V9L24.6097 9.01848Z"
            fill="white" />
    </g>
    <defs>
        <clipPath id="clip0_7341_45858">
            <rect width="40" height="40" fill="white" />
        </clipPath>
    </defs>
</svg>